<?xml version="1.0" encoding="UTF-8" standalone="no"?>
<!-- Created with Inkscape (http://www.inkscape.org/) -->

<svg
   xmlns:dc="http://purl.org/dc/elements/1.1/"
   xmlns:cc="http://creativecommons.org/ns#"
   xmlns:rdf="http://www.w3.org/1999/02/22-rdf-syntax-ns#"
   xmlns:svg="http://www.w3.org/2000/svg"
   xmlns="http://www.w3.org/2000/svg"
   xmlns:sodipodi="http://sodipodi.sourceforge.net/DTD/sodipodi-0.dtd"
   xmlns:inkscape="http://www.inkscape.org/namespaces/inkscape"
   width="85mm"
   height="75mm"
   viewBox="0 0 85 75"
   version="1.1"
   id="svg8"
   inkscape:version="0.92.1 r15371"
   sodipodi:docname="logo-HTMessenger.svg">
  <defs
     id="defs2">
    <symbol
       style="stroke-linejoin:miter;stroke-miterlimit:10"
       id="RoundedBalloon">
      <title
         id="title2156">Rounded Balloon</title>
      <rect
         id="rect2158"
         style="stroke:none;stroke-width:0.26458332"
         rx="8.4666662"
         height="31.75"
         width="66.145836"
         y="17.197916"
         x="21.166666" />
      <path
         id="path2160"
         style="stroke:none;stroke-width:0.26458332"
         d="m 32.808333,47.360417 -7.9375,14.022916 20.6375,-14.022916"
         inkscape:connector-curvature="0" />
      <rect
         id="rect2162"
         style="fill:#eeeeee;stroke-width:0.92604166"
         rx="7.9375"
         height="31.75"
         width="66.145836"
         y="15.875"
         x="19.84375" />
      <path
         id="path2164"
         style="fill:#eeeeee;stroke-width:0.92604166"
         d="M 31.75,46.302083 23.8125,60.325 44.45,46.302083"
         inkscape:connector-curvature="0" />
      <rect
         id="rect2166"
         style="fill:#ffffff;stroke:none;stroke-width:0.26458332"
         rx="6.6145835"
         height="27.78125"
         width="62.177082"
         y="17.197916"
         x="21.166666" />
      <path
         id="path2168"
         style="fill:#ffffff;stroke:none;stroke-width:0.26458332"
         d="M 34.925,42.333333 26.9875,56.35625 47.625,42.333333"
         inkscape:connector-curvature="0" />
    </symbol>
    <symbol
       id="CommunicationLink">
      <title
         id="title2415">Communication Link</title>
      <desc
         id="desc2417">Transcommunication link.</desc>
      <path
         id="path2419"
         style="fill:none;stroke-width:0.52916664"
         d="M 17.197917,6.6145833 V 22.489583 l 5.291666,-5.291666 v 15.875"
         inkscape:connector-curvature="0" />
    </symbol>
  </defs>
  <sodipodi:namedview
     id="base"
     pagecolor="#ffffff"
     bordercolor="#666666"
     borderopacity="1.0"
     inkscape:pageopacity="0.0"
     inkscape:pageshadow="2"
     inkscape:zoom="1.4"
     inkscape:cx="190.57245"
     inkscape:cy="228.77319"
     inkscape:document-units="mm"
     inkscape:current-layer="layer1-0"
     showgrid="false"
     inkscape:window-width="1920"
     inkscape:window-height="1027"
     inkscape:window-x="-8"
     inkscape:window-y="-8"
     inkscape:window-maximized="1" />
  <metadata
     id="metadata5">
    <rdf:RDF>
      <cc:Work
         rdf:about="">
        <dc:format>image/svg+xml</dc:format>
        <dc:type
           rdf:resource="http://purl.org/dc/dcmitype/StillImage" />
        <dc:title></dc:title>
      </cc:Work>
    </rdf:RDF>
  </metadata>
  <g
     inkscape:label="Camada 1"
     inkscape:groupmode="layer"
     id="layer1"
     transform="translate(0,-222)">
    <g
       transform="translate(40.655317,-178.38181)"
       id="layer1-0"
       inkscape:label="Camada 1">
      <text
         id="text14782"
         y="17.703344"
         x="126.15121"
         style="font-style:normal;font-weight:normal;font-size:5.64444447px;line-height:1.25;font-family:sans-serif;letter-spacing:0px;word-spacing:0px;fill:#000000;fill-opacity:1;stroke:none;stroke-width:0.26458332"
         xml:space="preserve"><tspan
           style="font-size:5.64444447px;stroke-width:0.26458332"
           y="22.697355"
           x="126.15121"
           id="tspan14780"
           sodipodi:role="line" /></text>
      <g
         id="g165"
         transform="translate(-33.261905,186.15327)">
        <g
           id="g13498"
           transform="translate(-64.76307,217.90558)">
          <g
             transform="translate(0.71770281,-5.209159)"
             inkscape:label="Camada 1"
             id="layer1-3">
            <path
               style="opacity:1;fill:#009cdf;fill-opacity:1;stroke:#000000;stroke-width:0;stroke-miterlimit:4;stroke-dasharray:none;stroke-dashoffset:0;stroke-opacity:1"
               d=""
               id="path6140"
               inkscape:connector-curvature="0" />
            <path
               style="opacity:1;fill:#009cdf;fill-opacity:1;stroke:#000000;stroke-width:0;stroke-miterlimit:4;stroke-dasharray:none;stroke-dashoffset:0;stroke-opacity:1"
               d=""
               id="path6184"
               inkscape:connector-curvature="0" />
            <path
               style="opacity:1;fill:#009cdf;fill-opacity:1;stroke:#000000;stroke-width:0;stroke-miterlimit:4;stroke-dasharray:none;stroke-dashoffset:0;stroke-opacity:1"
               d=""
               id="path6186"
               inkscape:connector-curvature="0" />
            <path
               style="opacity:1;fill:#009cdf;fill-opacity:1;stroke:#000000;stroke-width:0;stroke-miterlimit:4;stroke-dasharray:none;stroke-dashoffset:0;stroke-opacity:1"
               d=""
               id="path6188"
               inkscape:connector-curvature="0" />
            <path
               style="opacity:1;fill:#009cdf;fill-opacity:1;stroke:#000000;stroke-width:0;stroke-miterlimit:4;stroke-dasharray:none;stroke-dashoffset:0;stroke-opacity:1"
               d=""
               id="path6202"
               inkscape:connector-curvature="0" />
            <path
               style="opacity:1;fill:#009cdf;fill-opacity:1;stroke:#000000;stroke-width:0;stroke-miterlimit:4;stroke-dasharray:none;stroke-dashoffset:0;stroke-opacity:1"
               d=""
               id="path6208"
               inkscape:connector-curvature="0" />
            <path
               style="opacity:1;fill:#009cdf;fill-opacity:1;stroke:#000000;stroke-width:0;stroke-miterlimit:4;stroke-dasharray:none;stroke-dashoffset:0;stroke-opacity:1"
               d=""
               id="path6210"
               inkscape:connector-curvature="0" />
            <path
               style="opacity:1;fill:#009cdf;fill-opacity:1;stroke:#000000;stroke-width:0;stroke-miterlimit:4;stroke-dasharray:none;stroke-dashoffset:0;stroke-opacity:1"
               d=""
               id="path6222"
               inkscape:connector-curvature="0" />
            <path
               style="opacity:1;fill:#009cdf;fill-opacity:1;stroke:#000000;stroke-width:0;stroke-miterlimit:4;stroke-dasharray:none;stroke-dashoffset:0;stroke-opacity:1"
               d=""
               id="path6228"
               inkscape:connector-curvature="0" />
            <path
               style="opacity:1;fill:#3e4b5e;fill-opacity:1;stroke:#000051;stroke-width:0;stroke-miterlimit:4;stroke-dasharray:none;stroke-dashoffset:0;stroke-opacity:1"
               d=""
               id="path6574"
               inkscape:connector-curvature="0" />
            <path
               style="opacity:1;fill:#3e4b5e;fill-opacity:1;stroke:#000051;stroke-width:0;stroke-miterlimit:4;stroke-dasharray:none;stroke-dashoffset:0;stroke-opacity:1"
               d=""
               id="path6594"
               inkscape:connector-curvature="0" />
            <path
               style="opacity:1;fill:#3e4b5e;fill-opacity:1;stroke:#000051;stroke-width:0;stroke-miterlimit:4;stroke-dasharray:none;stroke-dashoffset:0;stroke-opacity:1"
               d=""
               id="path6610"
               inkscape:connector-curvature="0" />
            <path
               style="opacity:1;fill:#3e4b5e;fill-opacity:1;stroke:#000051;stroke-width:0;stroke-miterlimit:4;stroke-dasharray:none;stroke-dashoffset:0;stroke-opacity:1"
               d=""
               id="path6630"
               inkscape:connector-curvature="0" />
            <path
               style="opacity:1;fill:#3e4b5e;fill-opacity:1;stroke:#000051;stroke-width:0;stroke-miterlimit:4;stroke-dasharray:none;stroke-dashoffset:0;stroke-opacity:1"
               d=""
               id="path6688"
               inkscape:connector-curvature="0" />
            <path
               style="opacity:1;fill:#3e4b5e;fill-opacity:1;stroke:#000051;stroke-width:0;stroke-miterlimit:4;stroke-dasharray:none;stroke-dashoffset:0;stroke-opacity:1"
               d=""
               id="path6770"
               inkscape:connector-curvature="0" />
            <path
               id="path8944"
               style="opacity:1;fill:#3e4b5e;fill-opacity:1;stroke:#000051;stroke-width:0;stroke-miterlimit:4;stroke-dasharray:none;stroke-dashoffset:0;stroke-opacity:1"
               d="m 99.204804,20.415291 -2.085152,0.120923 c -2.575521,0.149471 -3.383751,0.338799 -4.166672,0.975134 -0.547661,0.445126 -0.621149,0.621313 -0.695047,1.677417 l -0.08217,1.18029 -1.552877,-1.374593 -1.552361,-1.374076 -1.699119,1.612821 c -2.478702,2.353361 -2.747616,3.252193 -1.521355,5.081342 0.61345,0.915051 0.528712,0.974619 -1.38648,0.974619 h -1.746146 v 2.34301 c 0,2.544617 0.0013,2.548244 1.295011,3.877281 0.7406,0.760759 0.839073,1.513832 0.325561,2.493388 -0.31755,0.605737 -0.314825,0.617389 0.516766,2.167311 0.45988,0.857107 1.131308,2.002393 1.491898,2.545064 0.36059,0.542671 0.95785,1.725975 1.32705,2.629297 0.369202,0.903322 1.034639,2.166027 1.478981,2.80603 1.511969,2.177735 1.165868,3.358777 -1.454693,4.966105 -0.70559,0.432771 -1.285808,0.880589 -1.288809,0.995288 -0.01762,0.598099 4.322117,2.521278 6.497278,2.87941 1.282149,0.211104 4.535297,0.06592 6.104525,-0.272851 1.439597,-0.310774 4.998937,-1.804062 5.425017,-2.275829 0.31406,-0.347761 0.15007,-0.516658 -1.49243,-1.542027 -1.39338,-0.86986 -2.23449,-2.420387 -1.92392,-3.546035 0.0639,-0.231775 0.38317,-0.72716 0.70953,-1.100709 0.78679,-0.900602 1.68273,-2.63344 1.95234,-3.77703 0.13157,-0.558083 0.44037,-1.154658 0.78134,-1.507919 1.1403,-1.181378 1.91926,-3.453358 1.91926,-5.600173 v -1.374593 h 1.279 1.27949 l -0.0672,-2.426211 c -0.057,-2.059966 -0.12311,-2.492467 -0.43874,-2.867006 -0.73326,-0.870156 -1.48097,-1.28805 -2.45927,-1.373561 -0.52311,-0.04572 -0.95136,-0.122925 -0.95136,-0.171566 0,-0.04863 0.56747,-0.635124 1.26089,-1.303795 0.69345,-0.668668 1.26093,-1.282351 1.26093,-1.363742 0,-0.08139 -0.77692,-0.829132 -1.72601,-1.661397 -1.25873,-1.103794 -1.93733,-1.56494 -2.50836,-1.704805 -0.98903,-0.24226 -2.13114,-0.0244 -3.11094,0.593245 -0.399022,0.251544 -0.786108,0.457336 -0.860403,0.457336 -0.07424,0 -0.135387,-0.845695 -0.135387,-1.878955 z M 90.08132,35.47587 c 1.422037,0.0086 2.855071,0.194908 3.765663,0.574125 1.420829,0.59169 1.738911,0.590462 3.152262,-0.01085 1.065019,-0.453112 1.308383,-0.484677 3.757395,-0.485243 3.69893,-0.0011 5.27939,0.594561 4.11654,1.551844 -0.18983,0.156268 -0.60446,0.935469 -0.92138,1.731161 -0.75607,1.898269 -1.25741,2.381946 -2.62517,2.534727 -1.3054,0.145817 -2.840699,-0.151458 -3.450437,-0.668176 -0.250769,-0.212511 -0.708638,-0.839878 -1.017508,-1.39423 -1.034719,-1.857118 -1.779151,-1.797219 -2.901632,0.233577 -0.533181,0.964647 -0.925981,1.456087 -1.25367,1.569416 -0.70862,0.245078 -2.813809,0.356877 -3.543969,0.1881 -1.11941,-0.258755 -1.743705,-0.988145 -2.297534,-2.68459 -0.154791,-0.474154 -0.538088,-1.127786 -0.85163,-1.452626 -0.542028,-0.561559 -0.553175,-0.604374 -0.225824,-0.873847 0.658204,-0.541851 2.468562,-0.824407 4.296894,-0.813387 z"
               inkscape:connector-curvature="0" />
            <path
               id="path9194"
               style="opacity:1;fill:#009cdf;fill-opacity:1;stroke:#000000;stroke-width:0;stroke-miterlimit:4;stroke-dasharray:none;stroke-dashoffset:0;stroke-opacity:1"
               d="m 82.994206,15.319995 -0.01707,0.0088 c 0.0062,0.01786 0.01196,0.03624 0.01654,0.05633 z m 42.001064,23.626981 c -0.008,0.0063 -0.0124,0.006 -0.0151,0.01188 -0.008,0.01873 -0.0132,0.03836 -0.0201,0.05736 0.0143,-0.0231 0.0298,-0.04567 0.0434,-0.06925 -0.003,-5e-5 -0.006,6.9e-5 -0.008,0 z m -56.235337,0.515215 c 1e-5,7.94e-4 -1.1e-5,0.0013 0,0.0021 2.64e-4,-7.94e-4 5.29e-4,-0.0013 0.0011,-0.0021 z m 0,0.0021 h -0.0011 c 1.1e-5,7.93e-4 -8e-6,0.0013 0,0.0021 2.65e-4,-7.94e-4 5.3e-4,-0.0013 0.0011,-0.0021 z m -0.0011,0.0021 c -0.02508,0.04953 -0.04839,0.09213 -0.07028,0.13126 0.02484,0.01744 0.04963,0.03478 0.07441,0.05219 -0.0011,-0.0611 -0.0033,-0.122452 -0.0041,-0.183452 z m 15.341223,14.536099 -1.216977,0.443383 c -0.669431,0.243636 -2.284386,0.892834 -3.58893,1.442805 -1.289323,0.543544 -4.2363,1.821166 -4.402315,1.851051 4.53917,4.348885 10.610569,7.253335 17.223237,8.063071 h 0.0011 c 1.92124,0.235186 5.869573,0.234905 7.845002,0.0016 6.355657,-0.754616 12.175277,-3.412734 16.681657,-7.420219 l -4.79454,-2.329571 c -1.72601,-0.765673 -3.52454,-1.53815 -3.99663,-1.716175 l -0.85837,-0.323495 -0.58187,0.267684 c -0.31998,0.147106 -1.16991,0.594963 -1.88878,0.995288 -3.33097,1.854989 -5.424115,2.359028 -9.790607,2.359028 -1.607609,0 -2.330165,-0.05497 -3.110405,-0.236678 -1.397159,-0.325382 -3.743634,-1.280737 -5.173845,-2.106848 -0.65554,-0.378648 -1.452076,-0.823984 -1.769917,-0.989602 z m 33.617584,0.681093 c -0.004,0.0027 -0.006,0.0065 0.003,0.01344 0,0.0011 0.003,0.0011 0.004,0.0021 -0.003,-0.0051 -0.003,-0.01042 -0.005,-0.0155 z m -44.736801,1.022162 c -0.0011,0.0024 -0.0021,0.0049 -0.0031,0.0072 0.01021,0.01199 0.02077,0.02368 0.031,0.03566 -0.0127,-0.01699 -0.01728,-0.02803 -0.02791,-0.04289 z m 46.069531,0.270266 c -0.004,0.0097 -0.0111,0.02175 -0.0161,0.03204 0.008,-0.009 0.0164,-0.01783 0.0243,-0.02687 -0.003,-0.0016 -0.006,-0.0036 -0.008,-0.0052 z m -2.72748,0.810287 c -5e-5,0.0013 0,0.0024 0,0.0036 0.003,0.0011 0.005,0.0021 0.008,0.0031 0,-0.0024 0.0153,0.0026 0.0119,0.0011 -0.006,-0.0035 -0.013,-0.0055 -0.0196,-0.0078 z m -0.70435,0.05323 -0.005,0.0047 c 0.004,7.93e-4 0.01,0.0032 0.0145,0.0041 -0.003,-0.003 -0.007,-0.0057 -0.01,-0.0088 z m 1.84486,0.24288 v 5.29e-4 c 0,1.24e-4 -2.4e-4,-2.1e-5 0.003,5.29e-4 0,-5.29e-4 1.6e-4,2.64e-4 -0.003,-0.0011 z m -0.0724,0.250631 c -0.005,0.0021 -0.009,0.0051 -0.0135,0.0072 -0.005,0.0021 0.0185,-0.0031 0.0146,-0.0067 v -5.29e-4 z m -42.469234,0.08061 c -0.0065,0.0019 -0.01302,0.0035 -0.01963,0.0052 0.006,-0.0013 0.01204,-0.0024 0.01447,-0.0031 0.0019,-5.29e-4 0.0035,-0.0013 0.0052,-0.0021 z m -0.162264,0.195339 5.29e-4,5.29e-4 5.3e-4,-5.29e-4 c -1.88e-4,-2.7e-5 -7.94e-4,1.8e-5 -0.0011,0 z"
               inkscape:connector-curvature="0" />
            <path
               inkscape:connector-curvature="0"
               id="path9196"
               d="m 88.800091,40.488912 c -0.47904,-0.112678 -1.1157,-1.508331 -1.24168,-2.72198 l -0.10312,-0.993417 0.72538,-0.217768 c 0.94269,-0.283007 4.0698,-0.16028 4.85241,0.190441 0.52024,0.233138 0.58092,0.344666 0.57255,1.052347 -0.0118,0.997924 -0.71228,2.342278 -1.36041,2.610903 -0.47527,0.196985 -2.72491,0.24888 -3.44513,0.07947 z m 3.36013,-1.101028 c 0,-0.09156 -0.26186,-0.307177 -0.58191,-0.479157 -0.32004,-0.171975 -0.5819,-0.356907 -0.5819,-0.410961 0,-0.05405 0.3055,-0.247938 0.67889,-0.430854 0.66806,-0.327271 0.92111,-0.80634 0.42591,-0.80634 -0.42488,0 -2.07465,1.034567 -2.07465,1.30101 0,0.137564 0.37096,0.417147 0.82437,0.621301 0.89239,0.401817 1.30929,0.467095 1.30929,0.205001 z"
               style="opacity:1;fill:#3e4b5e;fill-opacity:1;stroke:#000051;stroke-width:0;stroke-miterlimit:4;stroke-dasharray:none;stroke-dashoffset:0;stroke-opacity:1" />
            <path
               inkscape:connector-curvature="0"
               id="path9198"
               d="m 98.810401,40.476733 c -0.1867,-0.09892 -0.33973,-0.354551 -0.34006,-0.56808 -0.001,-0.694727 0.81746,-2.920142 1.21791,-3.311147 0.348819,-0.34058 0.515509,-0.368263 1.566379,-0.26011 0.64681,0.06657 1.47525,0.234761 1.84098,0.373767 0.64966,0.246919 0.66219,0.271094 0.54467,1.05099 -0.18194,1.207476 -0.88449,2.554943 -1.43058,2.743809 -0.6251,0.216191 -2.974209,0.195992 -3.399299,-0.02923 z m 2.948039,-1.304505 c 0.81738,-0.384497 0.70474,-0.76154 -0.37795,-1.265052 -1.459649,-0.678818 -2.428479,-0.489278 -1.03091,0.201687 0.75091,0.371246 1.06414,0.794001 0.58831,0.794001 -0.33095,0 -1.303119,0.661882 -1.303119,0.887202 0,0.17217 1.164349,-0.166573 2.123669,-0.617838 z"
               style="opacity:1;fill:#3e4b5e;fill-opacity:1;stroke:#000051;stroke-width:0;stroke-miterlimit:4;stroke-dasharray:none;stroke-dashoffset:0;stroke-opacity:1" />
            <path
               inkscape:connector-curvature="0"
               id="path9200"
               d="m 97.263981,37.979029 c -0.11956,-0.725278 -0.0831,-0.864261 0.30056,-1.146892 0.621,-0.45742 0.84563,-0.404523 0.69487,0.163621 -0.55566,2.093976 -0.77638,2.312001 -0.99543,0.983271 z"
               style="opacity:1;fill:#3e4b5e;fill-opacity:1;stroke:#000051;stroke-width:0;stroke-miterlimit:4;stroke-dasharray:none;stroke-dashoffset:0;stroke-opacity:1" />
          </g>
        </g>
        <text
           xml:space="preserve"
           style="font-style:normal;font-weight:normal;font-size:10.58333302px;line-height:1.25;font-family:sans-serif;letter-spacing:0px;word-spacing:0px;fill:#000000;fill-opacity:1;stroke:none;stroke-width:0.26458332"
           x="-7.8244877"
           y="286.52771"
           id="text14790"><tspan
             sodipodi:role="line"
             id="tspan14788"
             x="-7.8244877"
             y="286.52771"
             style="font-style:normal;font-variant:normal;font-weight:bold;font-stretch:normal;line-height:2.25;font-family:sans-serif;-inkscape-font-specification:'sans-serif Bold';fill:#3e4b5e;stroke-width:0.26458332">HT Messenger</tspan></text>
        <path
           id="path14778"
           style="fill:#3e4b5e;fill-opacity:1;stroke:none;stroke-width:2.39524102;stroke-miterlimit:4;stroke-dasharray:none;stroke-opacity:1"
           d="m 29.031928,215.41787 a 23.920621,8.0180854 0 0 0 -23.921029,8.01812 23.920621,8.0180854 0 0 0 23.921029,8.01811 23.920621,8.0180854 0 0 0 23.9205,-8.01811 23.920621,8.0180854 0 0 0 -23.9205,-8.01812 z"
           inkscape:connector-curvature="0" />
        <text
           xml:space="preserve"
           style="font-style:normal;font-weight:normal;font-size:10.58333302px;line-height:1.25;font-family:sans-serif;letter-spacing:0px;word-spacing:0px;fill:#000000;fill-opacity:1;stroke:none;stroke-width:0.26458332"
           x="19.33992"
           y="225.48788"
           id="text14786"><tspan
             sodipodi:role="line"
             id="tspan14784"
             x="19.33992"
             y="225.48788"
             style="font-size:5.64444447px;fill:#ffffff;stroke-width:0.26458332">Ionic 3</tspan></text>
        <path
           id="path295"
           style="fill:#3e4b5e;fill-opacity:1;stroke:none;stroke-width:1.09729576;stroke-miterlimit:4;stroke-dasharray:none;stroke-opacity:1"
           d="m 23.792513,216.38725 -0.0189,0.0878 c -0.009,-2e-5 -0.0183,7e-5 -0.0274,-1.3e-4 z m -1.50083,13.4479 c -0.006,0.002 -0.0116,0.003 -0.0174,0.005 -0.009,0.003 -0.0182,0.006 -0.0274,0.008 -0.004,-2.7e-4 -0.008,-5.1e-4 -0.0122,-0.001 0.019,-0.004 0.0379,-0.009 0.057,-0.0128 z m -2.42703,0.21775 c -0.0255,0.0686 -0.0395,0.12019 -0.049,0.16484 -0.0422,0.008 -0.0872,0.0133 -0.12702,0.0219 -0.0228,0.005 -0.0449,0.013 -0.0672,0.0201 -4.3e-4,7e-5 -5.4e-4,-6e-5 -0.001,1e-5 -0.0241,0.004 -0.0475,0.0111 -0.0714,0.0161 -0.0367,0.008 -0.0736,0.0149 -0.11041,0.0225 -0.0494,0.008 -0.0989,0.0169 -0.14834,0.0253 -0.0188,0.003 -0.0376,0.006 -0.0565,0.008 -0.012,-4.8e-4 -0.0241,-0.002 -0.036,-0.002 -0.0138,-0.003 -0.0278,-0.006 -0.0368,0.003 -0.002,0.002 3.1e-4,0.005 -2.5e-4,0.008 -0.14337,4e-4 -0.28678,10e-4 -0.43017,0.002 -0.004,-0.0202 -0.008,-0.0403 -0.0111,-0.0606 -0.0262,-0.006 -0.0522,-0.013 -0.0782,-0.0196 -0.002,-0.007 -0.004,-0.0135 -0.007,-0.02 0.0259,-0.006 0.0407,-0.009 0.0703,-0.0149 0.54613,-0.0987 0.36044,-0.0711 0.97283,-0.15229 0.0622,-0.008 0.12475,-0.0148 0.18714,-0.0217 z m 1.23183,0.0525 c -5.3e-4,5.6e-4 -0.002,0.001 -0.002,0.002 l -2.9e-4,10e-6 c -0.009,0.002 -0.0171,0.003 -0.0257,0.004 -2.8e-4,3e-5 -0.001,-2e-5 -0.002,1e-5 0.01,-0.002 0.0197,-0.005 0.0296,-0.007 z m -0.2802,0.0745 c -0.007,0.003 -0.0145,0.006 -0.0213,0.01 -0.0177,0.011 -0.0347,0.0231 -0.0496,0.038 -0.009,0.009 -0.0158,0.0183 -0.0234,0.0277 -0.016,-0.006 -0.0324,-0.01 -0.048,-0.0163 -0.006,-0.003 -0.0122,-0.007 -0.0183,-0.01 0.0441,-0.0135 0.0882,-0.0272 0.13247,-0.04 0.009,-0.003 0.0188,-0.006 0.0282,-0.009 z m -0.21405,0.0657 c 0.0181,0.01 0.0355,0.021 0.0545,0.029 0.0137,0.006 0.0281,0.009 0.0422,0.0145 -0.005,0.0101 -0.01,0.0207 -0.0134,0.0317 -0.12028,0.002 -0.24061,0.002 -0.36091,0.003 0.004,-0.001 0.008,-0.003 0.0116,-0.004 0.0896,-0.0209 0.1779,-0.0472 0.26608,-0.0741 z m -0.89364,0.0465 c -0.0353,0.009 -0.0706,0.0189 -0.10594,0.0282 -0.008,0.001 -0.0161,0.002 -0.0241,0.002 -0.006,1.3e-4 -0.0111,-0.003 -0.0167,-0.004 0.0216,-0.007 0.0434,-0.0125 0.065,-0.0195 0.0293,-0.004 0.0556,-0.006 0.0817,-0.007 z m 0.097,0.0154 c 3.2e-4,0.006 -5.4e-4,0.0148 3.9e-4,0.0203 -0.0247,1.2e-4 -0.0493,5.6e-4 -0.0739,5.6e-4 -0.002,-1.4e-4 -0.003,-2.8e-4 -0.004,-5.4e-4 0.0255,-0.007 0.0511,-0.0134 0.0766,-0.0202 4.3e-4,-10e-5 5.3e-4,-5e-5 10e-4,-3e-4 z m -0.26808,0.0111 c 3e-5,0.003 5.4e-4,0.007 0.003,0.009 10e-4,0.001 0.004,0.002 0.005,0.003 -0.0221,1e-4 -0.0443,3e-4 -0.0665,3.9e-4 0.0194,-0.004 0.0388,-0.008 0.0581,-0.012 z m 1.55183,0.0117 c 0.001,0.001 0.002,0.001 0.003,0.002 -0.0257,0.006 -0.0514,0.0127 -0.0772,0.0184 -0.005,5.6e-4 -0.01,0.002 -0.0147,0.002 -0.003,-0.005 -0.007,-0.007 -0.0109,-0.0101 0.01,-0.002 0.0199,-0.004 0.0299,-0.007 0.006,-0.001 0.0112,-0.002 0.0169,-0.003 0.0176,-5.6e-4 0.0353,-0.001 0.0529,-0.003 z m 0.0849,0.0233 c 0.01,5e-4 0.0197,0.001 0.0294,0.002 0.002,0.002 0.004,0.004 0.007,0.006 -0.003,-2e-5 -0.007,9e-5 -0.0102,6e-5 -0.0177,-4e-5 -0.0355,-2.4e-4 -0.0532,-5.6e-4 0.009,-0.002 0.0183,-0.004 0.0274,-0.007 z m -0.49635,0.007 c -5.4e-4,0.006 -0.002,0.0126 -0.002,0.0189 -0.0433,0.001 -0.0866,0.003 -0.1299,0.003 -0.1257,0.003 -0.2516,0.004 -0.37728,-0.001 0.0128,-0.004 0.0257,-0.0102 0.0387,-0.0153 l 0.007,-3e-5 c 0.002,-1e-5 0.005,10e-4 0.004,-3e-5 -4.3e-4,-5.6e-4 -0.001,-0.001 -0.002,-0.002 0.15345,-0.002 0.30691,-0.002 0.46035,-0.004 z m 2.15005,-0.007 0.0559,0.0975 c -4.2e-4,7e-5 -5.3e-4,7e-5 -10e-4,3e-4 -0.01,0.002 -0.019,0.003 -0.0285,0.005 -0.0105,0.002 -0.0211,0.003 -0.0316,0.003 -0.0128,5.6e-4 -0.0255,0.002 -0.0382,0.002 -0.0135,0.001 -0.0269,0.002 -0.0404,0.003 -0.008,5.6e-4 -0.0166,10e-4 -0.0249,0.002 0.002,-3.1e-4 0.003,-5.6e-4 0.004,-0.001 0.0129,-0.003 0.0258,-0.006 0.0384,-0.0101 0.0146,-0.006 0.0466,-0.0195 0.0511,-0.0339 0.007,-0.0223 0.0121,-0.0457 0.0149,-0.0692 z m -2.80233,0.0182 c 0.001,0.001 0.003,0.002 0.004,0.003 -0.006,-5.4e-4 -0.0113,-0.002 -0.0169,-0.002 -1.4e-4,-7e-5 0.0143,-5.6e-4 0.013,-5.6e-4 z m -0.24347,0.004 c 0.0438,0.008 0.0884,0.017 0.12977,0.0233 0.0415,0.006 0.0833,0.0107 0.12501,0.0161 0.16967,0.017 0.34023,0.0121 0.51028,0.008 0.0114,-2.2e-4 0.0227,-5.6e-4 0.034,-0.001 -0.0255,0.006 -0.0507,0.0139 -0.0763,0.019 -0.0547,0.0109 -0.0325,0.002 -0.088,0.01 -0.0139,0.002 -0.0277,0.005 -0.0415,0.008 -0.0509,0.0129 -0.10157,0.0314 -0.15471,0.0273 -0.0468,-0.003 -0.0927,-0.005 -0.13844,0.01 -0.0178,0.007 -0.0247,0.0103 -0.0437,0.0142 -0.0221,0.005 -0.0442,0.003 -0.0665,0.004 -0.027,5.6e-4 -0.0538,0.002 -0.0806,-0.002 -0.006,3.3e-4 -0.013,-7e-5 -0.0194,0.001 -0.0199,0.002 -0.024,0.005 -0.0443,0.009 -0.028,0.005 -0.0567,0.007 -0.0841,0.0156 -0.0242,0.004 -0.0487,0.008 -0.0731,0.0103 -0.0178,0.002 -0.036,5.6e-4 -0.0534,0.006 -0.0149,0.002 -0.0297,0.005 -0.0443,0.009 l -0.009,5e-5 -0.0584,3.5e-4 -0.0632,3.7e-4 -0.0463,2.7e-4 -0.0662,3.9e-4 c -0.003,2e-5 -0.005,5.6e-4 -0.008,5e-5 -5.3e-4,-1.5e-4 -4.3e-4,-0.002 -0.001,-0.002 -0.002,-0.001 -0.004,-0.001 -0.007,-0.002 0.023,-0.001 0.0459,-0.002 0.069,-0.003 0.0335,-0.003 0.0673,-0.006 0.10077,-0.0105 0.009,-0.001 0.0696,-5.3e-4 0.0519,-0.0395 -0.005,-0.012 -0.0224,-0.0134 -0.0347,-0.0166 -0.016,-0.004 -0.0795,-0.003 -0.0909,-0.003 -4.2e-4,1e-5 -5.3e-4,-1e-5 -10e-4,1e-5 -0.001,-0.006 -0.005,-0.0133 -0.0159,-0.0237 -0.006,-0.006 -0.0162,1.4e-4 -0.0244,4.4e-4 -0.0657,0.002 -0.0785,0.001 -0.15179,0.002 -0.0193,-1e-5 -0.0386,-3.4e-4 -0.0579,-5.7e-4 0.0521,-0.003 0.12897,-0.009 0.17554,-0.0144 0.0249,-0.003 0.0494,-0.007 0.0742,-0.0106 0.0122,-0.002 0.028,0.006 0.0366,-0.003 1.4e-4,-1.4e-4 3e-5,-4.4e-4 2.8e-4,-5.6e-4 0.001,1e-5 0.003,-2e-5 0.004,-2e-5 -5.4e-4,-0.004 -5.4e-4,-0.009 -5.4e-4,-0.0134 3.9e-4,-0.006 10e-4,-0.0123 10e-4,-0.0189 0.005,-1.4e-4 0.008,-9e-5 0.0136,-3.9e-4 5.3e-4,-1e-5 0.001,2e-5 0.002,0 0.007,-1.9e-4 0.0203,0.006 0.0205,-0.001 1.1e-4,-0.006 -0.002,-0.009 -0.003,-0.0131 0.0183,-0.004 0.0368,-0.008 0.0551,-0.0122 0.0815,-1.8e-4 0.16307,-5.6e-4 0.24458,-0.002 z m 0.9106,0.0681 c 0.0109,0.0221 0.0266,0.0412 0.0457,0.0557 0.0159,0.0111 0.0323,0.0208 0.05,0.0281 0.017,0.007 0.0345,0.0134 0.0524,0.0179 0.0181,0.004 0.0362,0.009 0.0546,0.0116 0.0188,0.003 0.0378,0.006 0.0568,0.007 0.0193,0.002 0.0386,0.003 0.0579,0.003 0.0203,10e-4 0.0406,0.002 0.061,0.002 0.0206,4.4e-4 0.0414,0.001 0.062,0.001 0.0218,3.2e-4 0.0436,0.001 0.0654,5.6e-4 0.0232,1.7e-4 0.0463,1.7e-4 0.0695,-1.1e-4 0.0245,-1.8e-4 0.0491,-1.4e-4 0.0737,-5.6e-4 0.0261,-4.5e-4 0.052,-0.002 0.0781,-0.002 0.0278,-5.6e-4 0.0558,-0.002 0.0836,-0.002 0.0299,-5.6e-4 0.0596,-0.002 0.0895,-0.003 0.0315,-10e-4 0.0632,-0.003 0.0947,-0.004 0.0331,-0.001 0.0661,-0.003 0.0991,-0.005 0.0347,-0.002 0.0695,-0.004 0.10412,-0.006 0.0358,-0.002 0.0714,-0.004 0.10717,-0.006 0.036,-0.002 0.0718,-0.004 0.10771,-0.007 0.0365,-0.002 0.0729,-0.006 0.10938,-0.008 0.0362,-0.002 0.0726,-0.006 0.10881,-0.008 0.0346,-0.003 0.069,-0.006 0.10355,-0.01 0.0325,-0.003 0.065,-0.007 0.0975,-0.0104 0.0278,-0.003 0.0554,-0.007 0.083,-0.0115 0.0136,-0.002 0.0273,-0.004 0.0409,-0.007 1.4e-4,-1e-5 4.3e-4,-1e-5 5.4e-4,-1e-5 0.004,-8e-5 0.008,-1.3e-4 0.0125,-3.7e-4 0.007,-2e-4 0.0144,-9e-5 0.0216,-5.6e-4 0.009,-5e-4 0.0183,-0.001 0.0274,-0.002 0.0112,-5.6e-4 0.0226,-0.001 0.0338,-0.002 0.0134,-10e-4 0.027,-0.002 0.0404,-0.003 0.0128,-0.001 0.0254,-0.002 0.0382,-0.002 0.0107,-0.001 0.0215,-0.002 0.0321,-0.003 0.01,-0.001 0.0191,-0.003 0.0288,-0.005 0.002,-3e-4 0.003,-0.001 0.005,-0.001 l 0.0257,0.0451 c -0.007,3e-5 -0.0148,1.1e-4 -0.0221,1.4e-4 -0.008,10e-6 -0.0156,9e-5 -0.0235,1.3e-4 -0.008,4e-5 -0.0155,1e-4 -0.0233,1.4e-4 -0.009,5e-5 -0.0172,10e-5 -0.0258,1.5e-4 l -0.0313,1.9e-4 c -0.0122,7e-5 -0.0243,1.4e-4 -0.0366,2.1e-4 l -0.0363,2.1e-4 -0.0211,1.3e-4 c -0.009,5e-5 -0.009,0.01 5e-5,0.01 l 0.0211,-1.2e-4 0.0363,-2.2e-4 0.0366,-2.1e-4 c 0.0104,-6e-5 0.021,-1.3e-4 0.0313,-1.8e-4 0.009,-6e-5 0.0172,-1.1e-4 0.0258,-1.6e-4 0.008,-4e-5 0.0156,-1e-4 0.0233,-1.4e-4 0.008,-4e-5 0.0157,-1.1e-4 0.0235,-1.3e-4 0.009,-3e-5 0.0178,-5e-5 0.0268,1.3e-4 4.2e-4,0 5.4e-4,0 0.001,0 l 0.0347,0.0607 -0.0748,4.4e-4 -0.11606,5.6e-4 -0.10775,5.6e-4 -0.0756,4.5e-4 -0.10027,5.6e-4 -0.0867,5.1e-4 -0.0897,5.3e-4 c -0.008,0.001 -0.0159,0.002 -0.0238,0.003 -0.0176,0.003 -0.021,0.004 -0.0382,0.005 -0.0167,5.6e-4 -0.0337,-0.001 -0.0504,-0.001 -0.0293,-0.001 -0.0585,5.7e-4 -0.0878,5.7e-4 -0.031,3e-5 -0.0618,6e-5 -0.0928,2.4e-4 -0.0375,2.4e-4 -0.0752,4.5e-4 -0.11273,5.6e-4 -0.0346,2.1e-4 -0.069,4.1e-4 -0.1036,5.7e-4 l -0.15456,0.001 -0.0892,5.3e-4 -0.12852,5.6e-4 -0.11911,5.6e-4 -0.10581,5.6e-4 c -0.009,5e-5 -0.0179,5.6e-4 -0.0269,1.6e-4 -0.01,-5.1e-4 -0.0193,-0.002 -0.0288,-0.003 -0.009,-0.001 -0.0173,-0.002 -0.0261,-0.003 -0.008,-5.2e-4 -0.0167,-0.001 -0.0249,-0.002 -0.0367,-0.004 5.4e-4,-0.003 -0.0402,-0.006 -0.0194,-0.002 -0.0293,-0.001 -0.0485,-2.8e-4 -0.005,-5.2e-4 -0.0441,-0.004 -0.0493,-0.004 -0.0237,-0.004 -0.014,-0.006 -0.0377,-0.008 -0.0183,-0.002 -0.0293,-0.001 -0.0479,-2.7e-4 -0.0425,0.006 -0.0835,-0.01 -0.12527,-0.0132 -0.0435,0.004 -0.0874,0.004 -0.13101,0.003 -0.0291,-3.9e-4 -0.0579,5e-5 -0.087,2.1e-4 -0.0248,1.2e-4 -0.0495,2.9e-4 -0.0742,4.4e-4 -0.0279,1.8e-4 -0.056,3.3e-4 -0.0839,5e-4 -0.0319,1.9e-4 -0.0639,3.7e-4 -0.0958,5.6e-4 l -0.1288,5.6e-4 -0.1072,5.6e-4 -0.13656,5.6e-4 -0.0645,3.8e-4 c 0.0216,-0.004 0.0378,-0.009 0.0598,-0.01 0.0266,0.004 0.0535,0.003 0.0803,0.002 0.0235,-5.6e-4 0.0467,0.001 0.0701,-0.004 0.0228,-0.005 0.0305,-0.008 0.0517,-0.0159 0.0406,-0.0123 0.082,-0.0103 0.1235,-0.008 0.0569,0.005 0.11126,-0.0144 0.16577,-0.0282 0.0131,-0.002 0.0261,-0.006 0.0393,-0.007 0.0583,-0.008 0.0245,0.003 0.0864,-0.01 0.0322,-0.006 0.0634,-0.0169 0.0954,-0.0235 0.0176,-0.003 0.0354,-0.006 0.0531,-0.009 0.0114,-0.001 0.0227,-0.002 0.034,-0.003 z m -1.9412,0.057 c 0.0153,-1e-5 0.0331,0.001 0.0488,5.6e-4 8e-5,5.6e-4 4e-5,0.001 2.9e-4,0.002 -0.0163,-2e-5 -0.0327,-1e-4 -0.049,-1e-5 -2e-5,-5.6e-4 10e-6,-0.002 -1e-5,-0.003 z m 0.70179,0.0263 c -0.0265,0.0211 -0.0524,0.0366 -0.0673,5.7e-4 0.008,-2.1e-4 0.0161,-7e-5 0.0241,-4.5e-4 0.0144,-1e-4 0.0288,-3.2e-4 0.0432,-2.5e-4 z m -0.28041,0.0371 c 0.003,0.003 0.006,0.006 0.01,0.007 0.005,0.002 0.01,0.001 0.0147,0.002 0.004,0.005 0.009,0.009 0.0128,0.0136 0.0279,0.006 0.009,5.1e-4 0.0205,0.002 0.0116,0.002 0.0225,0.008 0.0344,0.007 0.0105,-5.6e-4 0.0222,-0.002 0.0327,-2e-4 0.008,0.002 0.0141,0.004 0.0216,0.007 -0.004,6e-5 -0.008,0.001 -0.0119,0.001 -0.027,4.5e-4 -0.054,-0.002 -0.0809,-5.7e-4 -0.0129,0.003 -0.0253,0.006 -0.0382,0.009 -0.005,0.001 -0.01,0.002 -0.0147,0.003 -0.003,5.6e-4 -0.006,0.002 -0.009,0.003 -0.004,3.2e-4 -0.008,-5.2e-4 -0.0116,-0.001 -0.0329,-0.003 -0.0679,1.1e-4 -0.0971,0.0177 -0.0167,0.006 0.005,-0.001 -0.0227,0.005 -0.004,5.6e-4 -0.008,0.002 -0.0114,0.003 -2.9e-4,4.4e-4 -2.8e-4,0.001 -0.001,0.002 -0.004,5.6e-4 -0.007,5.6e-4 -0.0105,10e-4 -0.003,5.7e-4 -0.006,0.002 -0.008,0.002 -0.0111,0.002 -0.0224,0.002 -0.0335,0.004 -0.0139,0.003 -0.0226,0.0136 -0.037,0.0133 -0.004,0.002 -0.008,0.003 -0.0119,0.005 -5.3e-4,0.001 -0.001,0.002 -0.002,0.003 -0.009,0.004 -0.0188,0.005 -0.0277,0.009 -0.004,0.002 -0.009,0.005 -0.0127,0.008 -0.003,0.002 -0.006,0.004 -0.01,0.007 -0.009,0.006 -0.0337,0.015 -0.0359,0.0238 -1.4e-4,5.6e-4 0.003,-0.001 0.003,-5.6e-4 -5.4e-4,0.001 -0.002,0.001 -0.003,0.002 -0.0106,0.006 0.009,-0.004 -0.0205,0.004 -0.0143,0.004 -0.0163,0.0139 -0.0312,0.0121 -0.0139,0.002 -0.0256,0.006 -0.0376,0.0144 -5.4e-4,5.7e-4 -10e-4,0.002 -0.002,0.002 l -0.007,4e-5 c 0.01,-0.068 0.0143,-0.13227 0.0165,-0.1867 0.052,-5.6e-4 0.10396,-0.001 0.15594,-0.002 0.006,-1e-4 0.0126,-2e-5 0.0188,-1.1e-4 0.0416,-3.9e-4 0.0833,-5.6e-4 0.12492,-1.7e-4 0.0279,1.3e-4 0.0557,-4e-5 0.0837,-0.002 5.3e-4,-4e-5 0.001,3e-5 0.002,-1e-5 0.0124,-2e-5 0.0248,-1.1e-4 0.0371,-2.2e-4 z m 3.6015,-0.0156 c -0.01,4e-5 -0.0202,1.2e-4 -0.0302,1.8e-4 -0.007,2e-5 -0.0135,7e-5 -0.0202,1.1e-4 -0.005,3e-5 -0.0107,7e-5 -0.0161,1e-4 -0.003,1e-5 -0.007,4e-5 -0.01,6e-5 -0.009,5e-5 -0.009,0.01 6e-5,0.01 0.003,-2e-5 0.007,-4e-5 0.01,-6e-5 0.005,-3e-5 0.0107,-6e-5 0.0161,-9e-5 0.007,-4e-5 0.0135,-9e-5 0.0202,-1.2e-4 0.01,-6e-5 0.0202,1.8e-4 0.0302,1.2e-4 0.0148,-6e-5 0.0298,-2.4e-4 0.0446,-2.7e-4 0.0175,-2e-5 0.0351,-1.8e-4 0.0526,-1e-5 0.0148,6e-5 0.0295,2.7e-4 0.0443,0.001 0.006,1.2e-4 0.0132,2.2e-4 0.0197,1.9e-4 0.009,-1.7e-4 0.009,-0.0101 -5e-5,-0.01 -0.006,1.1e-4 -0.0128,5e-5 -0.0191,-1.8e-4 -0.0149,-3.6e-4 -0.03,-3.9e-4 -0.0449,-0.001 -0.0176,-4e-5 -0.0351,1.4e-4 -0.0526,1e-5 -0.0149,4e-5 -0.0297,-1.1e-4 -0.0446,-2e-5 z m -2.0349,0.0442 c 0.0184,0.001 0.036,0.006 0.0543,0.009 0.0247,0.004 0.0502,0.007 0.0751,0.004 0.0125,-5.3e-4 0.0275,-0.002 0.0402,-2.5e-4 0.0131,0.002 0.028,0.006 0.0407,0.008 0.009,0.002 0.046,0.005 0.0538,0.005 0.0162,-4e-4 0.0272,-0.001 0.0435,3e-5 0.0275,0.002 0.0131,0.003 0.0419,0.006 0.008,10e-4 0.0153,10e-4 0.023,0.002 l 0.0269,0.003 c 0.0108,0.001 0.0215,0.003 0.0324,0.003 0.009,4e-4 0.0181,-1e-4 0.0271,-1.5e-4 l 0.10553,-5.7e-4 0.1191,-5.6e-4 0.12881,-5.6e-4 0.0892,-5.2e-4 0.15428,-0.001 c 0.0346,-2.1e-4 0.069,-4.1e-4 0.1036,-5.7e-4 0.0375,-2.2e-4 0.0752,-4.3e-4 0.11274,-5.6e-4 0.031,-2e-4 0.0621,-5.1e-4 0.0931,-5.4e-4 0.0286,-1.8e-4 0.0572,-0.002 0.0859,-5.1e-4 0.0384,0.002 0.0764,0.002 0.11408,-0.007 l 0.0898,-5.4e-4 0.0867,-5.1e-4 0.10027,-5.6e-4 0.0756,-4.4e-4 0.10775,-5.6e-4 0.11633,-5.7e-4 0.0463,-2.7e-4 c -0.004,0.003 -0.006,0.007 -0.008,0.0114 -0.002,0.005 -10e-4,0.01 8e-5,0.0142 0.002,0.004 0.004,0.007 0.007,0.0101 -0.003,3.1e-4 -0.005,5.6e-4 -0.008,0.001 -0.005,5.6e-4 -0.01,0.001 -0.0147,0.002 -0.006,5.6e-4 -0.0108,0.002 -0.0163,0.002 -0.005,5.7e-4 -0.01,5.7e-4 -0.0144,0.002 -0.004,5.6e-4 -0.009,0.001 -0.0133,0.001 l -0.0161,1e-4 -0.0108,6e-5 c -9e-5,-0.001 -5.4e-4,-0.002 -5.4e-4,-0.003 1.1e-4,-0.003 3.9e-4,-0.007 5.4e-4,-0.0107 1.2e-4,-0.004 -10e-4,-0.008 -0.003,-0.0113 -0.002,-0.003 -0.005,-0.005 -0.009,-0.007 -0.003,-10e-4 -0.007,-0.002 -0.0105,-0.002 -0.005,6e-5 -0.009,0.003 -0.0124,0.007 -0.003,0.004 -0.005,0.009 -0.005,0.0139 3e-5,0.004 5.4e-4,0.009 0.001,0.0131 l -0.023,1.3e-4 -0.0235,1.4e-4 c -5.4e-4,-0.003 -10e-4,-0.006 -0.002,-0.008 -0.002,-0.005 -0.006,-0.008 -0.01,-0.0109 -0.004,-0.003 -0.009,-0.004 -0.0139,-0.006 -0.004,-0.001 -0.009,-0.002 -0.013,-0.001 -0.006,0.002 -0.009,0.007 -0.011,0.0117 -0.002,0.004 -0.002,0.009 -0.003,0.0139 -0.002,0 -0.004,1e-5 -0.005,3e-5 -0.008,5e-5 -0.0165,6e-5 -0.0247,1.4e-4 -10e-4,1e-5 -0.002,1e-5 -0.003,2e-5 -10e-4,-0.003 -0.003,-0.007 -0.004,-0.0102 -0.004,-0.009 -0.0128,-0.004 -0.008,0.005 0.001,0.002 0.002,0.003 0.003,0.006 -0.004,5e-5 -0.008,1e-5 -0.0122,7e-5 -0.0103,1.6e-4 -0.0205,9e-5 -0.0308,4.8e-4 -0.0108,3.5e-4 -0.0216,5.6e-4 -0.0324,0.002 -0.0108,0.001 -0.0215,0.002 -0.0321,0.004 -0.009,0.002 -0.0178,0.003 -0.026,0.007 -0.005,0.003 -0.01,0.007 -0.009,0.0137 5.4e-4,0.005 0.003,0.008 0.007,0.0107 10e-4,4.4e-4 0.002,2.8e-4 0.004,5.4e-4 -0.005,0.002 -0.005,0.008 0.003,0.008 0.004,5e-5 0.008,7e-5 0.0122,2.3e-4 0.005,1.2e-4 0.01,2.3e-4 0.015,0.001 0.005,4.1e-4 0.009,0.001 0.0139,0.002 0.005,2.7e-4 0.0104,0.002 0.0156,0.002 0.006,-3e-5 0.0114,-9e-5 0.0171,-1e-4 0.007,-2e-5 0.0145,1e-5 0.0216,1.6e-4 0.004,4e-5 0.008,-4e-5 0.0122,2.3e-4 0.004,2.7e-4 0.008,0.001 0.0116,0.002 0.004,5.4e-4 0.009,0.002 0.0133,0.002 0.004,5.4e-4 0.008,5.2e-4 0.0119,0.001 0.004,2.8e-4 0.007,6e-5 0.0108,2.3e-4 0.003,9e-5 0.007,2.6e-4 0.01,5.1e-4 0.003,2.7e-4 0.007,5.2e-4 0.0102,0.001 0.004,5.4e-4 0.007,0.001 0.0111,0.002 l 0.0119,-8e-5 c 0.004,-2e-5 0.007,-4e-5 0.0105,-6e-5 5.4e-4,5e-5 0.001,-7e-5 0.002,-1e-5 0.004,4.3e-4 0.007,0.001 0.0108,0.001 0.004,1.1e-4 0.007,2.6e-4 0.0114,5e-4 0.004,2.7e-4 0.008,5.1e-4 0.0119,4.9e-4 l 0.0111,-7e-5 c 0.004,-2e-5 0.008,-4e-5 0.0116,-6e-5 l 0.007,-5e-5 c 0.001,1.5e-4 0.003,4.4e-4 0.004,5.4e-4 0.003,2.8e-4 0.007,5.2e-4 0.0102,5.1e-4 l 0.0102,-7e-5 0.0114,-6e-5 0.0119,-8e-5 0.009,-5e-5 c 4.3e-4,5.6e-4 5.4e-4,0.002 0.002,0.002 0.003,2.8e-4 0.006,2.6e-4 0.009,2.5e-4 l 0.01,-6e-5 0.009,-6e-5 0.01,-6e-5 0.009,-5e-5 0.01,-6e-5 0.0102,-6e-5 0.0102,-6e-5 0.009,-6e-5 c 0.003,-1e-5 0.006,-3e-5 0.01,-5e-5 0.003,-2e-5 0.007,-4e-5 0.0102,-6e-5 0.004,-3e-5 0.007,-4e-5 0.0108,-6e-5 0.004,-3e-5 0.007,-4e-5 0.0111,-7e-5 1.4e-4,0 4.3e-4,0 5.4e-4,-1e-5 0.001,9e-5 4.3e-4,0.001 0.002,0.001 0.002,-4e-5 0.003,1e-5 0.004,-3e-5 0.002,-4e-5 0.003,-3.2e-4 0.004,-3.2e-4 9e-5,0 1.4e-4,-2e-5 2.8e-4,-1e-5 0.002,-2e-5 0.003,0 0.004,-2e-5 0.001,8e-5 0.002,2.8e-4 0.004,2.7e-4 10e-4,3e-5 0.003,-10e-6 0.004,-2e-5 0.001,-1e-5 0.002,3e-5 0.004,-2e-5 0.001,-4e-5 0.002,-3.1e-4 0.004,-3.2e-4 10e-4,-6e-5 0.002,7e-5 0.004,-2e-5 0.001,-8e-5 0.002,-1.6e-4 0.003,-3.2e-4 9e-5,0 1.4e-4,0 2.8e-4,0 0.001,-1e-5 0.003,1e-5 0.004,-2e-5 0.002,-3e-5 0.003,-3.1e-4 0.004,-3.2e-4 0.002,-3e-5 0.003,1e-5 0.004,-2e-5 0.002,-4e-5 0.003,1e-5 0.004,-3e-5 9e-5,0 1.5e-4,0 2.9e-4,0 l 4.54779,7.93289 -8.19773,-7.90991 -0.53428,0.01 c 0.004,-0.004 0.008,-0.009 0.0118,-0.0122 5.4e-4,-5.6e-4 0.002,0.002 0.002,0.002 0.007,-0.002 0.0154,-0.008 0.021,-0.0117 0.004,-0.003 0.0164,-0.0118 0.0209,-0.0138 0.0339,-0.0148 -0.0218,0.0149 0.0202,-0.006 0.0209,-0.0103 0.005,-0.006 0.016,-0.009 0.006,0.001 0.004,0.001 0.0138,-0.003 0.0107,-0.004 0.0108,-0.008 0.0213,-0.009 0.004,-5.6e-4 0.008,-5.6e-4 0.0128,-10e-4 0.005,-0.001 0.0107,-0.002 0.016,-0.003 0.004,-0.004 0.01,-0.001 0.0147,-0.002 0.005,-0.001 0.0138,-0.006 0.0196,-0.007 0.0239,-0.004 -0.0113,0.005 0.0227,-0.004 0.0256,-0.0151 0.0549,-0.0189 0.0838,-0.0165 0.004,4.3e-4 0.007,0.002 0.0108,0.002 0.0244,-0.002 0.0483,-0.0101 0.0722,-0.0147 0.0247,-2.9e-4 0.0495,0.001 0.0742,0.001 0.0153,6e-5 0.0296,2.7e-4 0.0446,-0.004 0.007,-0.002 0.0138,-0.005 0.0208,-0.007 0.0168,-0.005 0.0172,-0.004 0.0332,-0.006 0.005,2.7e-4 0.01,0.001 0.0144,0.002 0.003,2.8e-4 0.006,0.002 0.009,0.002 0.0153,-5.4e-4 0.0289,-0.007 0.044,-0.008 0.0101,-0.002 0.0193,-0.006 0.0296,-0.007 0.003,-8e-5 0.006,2.6e-4 0.01,-5e-5 0.005,-4.8e-4 0.0247,-0.005 0.0307,-0.006 0.0219,-0.002 0.002,4.4e-4 0.0274,-0.005 0.003,-5.6e-4 0.006,-10e-4 0.009,-0.002 l 0.10165,-5.6e-4 0.0992,-5.6e-4 0.11661,-5.6e-4 0.13656,-5.6e-4 0.1072,-5.7e-4 0.1288,-5.6e-4 0.0958,-5.6e-4 c 0.0279,-1.6e-4 0.056,-3.2e-4 0.0839,-4.9e-4 0.0248,-1.6e-4 0.0495,-3.3e-4 0.0742,-4.4e-4 0.0289,-2e-4 0.0578,-5.6e-4 0.0867,-5.1e-4 0.0428,1.9e-4 0.0856,0.001 0.12823,-0.003 z m 2.23858,0.0225 0.0117,0.0208 c -0.002,0.001 -0.004,0.002 -0.006,0.003 -0.005,0.002 -0.01,0.003 -0.015,0.004 -0.005,0.001 -0.009,0.002 -0.0138,0.003 -0.004,5.6e-4 -0.009,0.001 -0.0136,0.002 -0.003,-0.001 -0.005,-0.002 -0.007,-0.004 -0.002,-0.002 -0.004,-0.004 -0.005,-0.007 -5.4e-4,-0.003 -0.001,-0.005 -3.3e-4,-0.008 0.001,-0.003 0.003,-0.005 0.005,-0.007 0.004,-0.003 0.009,-0.006 0.0132,-0.007 0.001,-3e-4 0.002,-3e-4 0.003,-5.6e-4 z m -0.16665,0.0204 c 0.003,-1e-5 0.005,2.7e-4 0.007,0.001 0.002,5.6e-4 0.003,0.001 0.004,0.003 0.001,0.002 0.002,0.004 0.002,0.006 -1.2e-4,0.003 -3.8e-4,0.007 -5.3e-4,0.011 10e-6,0.001 4.4e-4,0.002 5.4e-4,0.003 h -0.001 c -0.006,4e-5 -0.0127,7e-5 -0.0191,1.1e-4 -4.4e-4,-0.004 -10e-4,-0.008 -10e-4,-0.0122 1.3e-4,-0.003 10e-4,-0.006 0.003,-0.008 0.002,-0.002 0.003,-0.003 0.005,-0.003 z m -0.10023,0.009 c 0.003,-5.6e-4 0.006,-1.9e-4 0.009,5.1e-4 0.004,0.001 0.008,0.002 0.0111,0.004 0.002,0.002 0.005,0.003 0.006,0.006 5.4e-4,0.002 0.001,0.003 0.002,0.005 -0.008,5e-5 -0.0153,9e-5 -0.023,1.4e-4 -0.004,2e-5 -0.007,4e-5 -0.0108,6e-5 4.1e-4,-0.003 0.001,-0.007 0.002,-0.01 0.001,-0.002 0.002,-0.005 0.004,-0.006 z m 0.28365,-5.5e-4 1e-5,3e-4 v 2.9e-4 l 0.0218,0.0382 c -5.3e-4,3e-5 -0.001,-3e-5 -0.002,2e-5 -0.001,6e-5 -0.002,3e-4 -0.003,3.1e-4 -0.001,6e-5 -0.002,-6e-5 -0.002,1e-5 -10e-4,8e-5 -0.002,1.5e-4 -0.003,3.2e-4 -10e-4,8e-5 -0.002,1.5e-4 -0.003,3.1e-4 -10e-4,9e-5 -0.002,1.5e-4 -0.003,3.1e-4 -10e-4,8e-5 -0.002,1.5e-4 -0.003,3.1e-4 -10e-4,8e-5 -0.002,-5e-5 -0.003,2e-5 -10e-4,8e-5 -0.002,3.1e-4 -0.003,3.2e-4 -10e-4,7e-5 -0.002,3e-4 -0.003,3.1e-4 -0.001,6e-5 -0.002,-2e-5 -0.003,2e-5 0.002,-0.002 0.004,-0.005 0.003,-0.008 -0.001,-0.003 -0.003,-0.005 -0.004,-0.008 -0.002,-0.004 -0.004,-0.007 -0.008,-0.01 -0.004,-0.002 -0.008,-0.004 -0.0122,-0.005 l 0.004,-0.001 c 0.006,-0.001 0.0108,-0.003 0.016,-0.005 0.003,-0.001 0.005,-0.003 0.008,-0.004 z m -0.0553,0.0154 c 1.5e-4,8e-5 4.3e-4,8e-5 5.4e-4,2.9e-4 0.004,0.002 0.008,0.002 0.0128,0.003 0.004,2.7e-4 0.008,0.001 0.0119,0.002 0.003,5.4e-4 0.006,0.002 0.009,0.004 0.002,0.001 0.003,0.003 0.004,0.006 5.4e-4,0.003 0.003,0.005 0.004,0.007 -0.004,0.001 -0.008,0.002 -0.0114,0.002 -0.006,0.001 -0.0123,0.002 -0.0186,0.002 -0.006,5.6e-4 -0.0127,5.6e-4 -0.0191,0.001 -0.006,1.8e-4 -0.0116,1.5e-4 -0.0175,4e-4 -0.006,1.9e-4 -0.0116,1.8e-4 -0.0175,-1.9e-4 -0.007,-1e-4 -0.0132,-4.8e-4 -0.0197,-0.002 -0.007,-0.001 -0.0132,-0.003 -0.0197,-0.006 -0.006,-0.002 -0.0114,-0.004 -0.0167,-0.007 -10e-4,-5.5e-4 -0.002,-0.002 -0.003,-0.003 l 0.006,-4e-5 0.0161,-9e-5 c 0.005,8e-5 0.01,-3.6e-4 0.0144,-10e-4 0.005,-5.6e-4 0.01,-0.001 0.0144,-0.002 0.006,-5.6e-4 0.011,-0.002 0.0166,-0.002 0.005,-4.7e-4 0.01,-0.001 0.0144,-0.002 0.006,-0.001 0.0128,-0.002 0.0191,-0.003 z m -0.198,0.01 c 0.001,0.005 0.003,0.009 0.005,0.0124 0.004,0.006 0.01,0.01 0.0159,0.013 0.006,0.003 0.0117,0.006 0.0183,0.006 0.005,-4.7e-4 0.009,-0.002 0.0132,-0.004 0.003,-0.002 0.006,-0.005 0.007,-0.009 0.002,-0.004 0.003,-0.009 0.004,-0.0131 1.1e-4,-0.002 -3e-4,-0.003 -3.1e-4,-0.005 l 0.0188,-1.1e-4 0.003,-2e-5 c 1.5e-4,3e-4 4e-5,0.001 3e-4,0.002 0.003,0.004 0.006,0.008 0.0106,0.0107 0.006,0.003 0.0116,0.006 0.0178,0.008 0.007,0.003 0.0143,0.005 0.0217,0.006 0.007,0.001 0.0136,0.002 0.0205,0.002 0.006,2.6e-4 0.012,4.9e-4 0.018,4.6e-4 0.003,-5e-5 0.005,-1e-5 0.008,-5e-5 1.6e-4,0.002 0.004,0.002 0.006,0.004 l -0.0122,7e-5 -0.015,9e-5 -0.0147,8e-5 -0.0144,9e-5 -0.0128,8e-5 -0.0122,7e-5 -0.0108,6e-5 -0.0105,6e-5 -0.013,8e-5 -0.0116,7e-5 -0.0114,7e-5 -0.0133,7e-5 -0.0128,8e-5 -0.0136,8e-5 -0.013,7e-5 -0.0119,8e-5 c -0.004,1.6e-4 -0.007,-2.6e-4 -0.0108,-5e-4 -0.004,-1.3e-4 -0.007,-5.2e-4 -0.0111,-0.001 -0.004,-5.3e-4 -0.008,-0.001 -0.0125,-0.001 -0.004,-1.3e-4 -0.007,-4e-5 -0.0111,-2.3e-4 -0.003,-5e-5 -0.007,-2.6e-4 -0.01,-2.4e-4 -0.004,-10e-6 -0.007,5e-5 -0.0105,6e-5 -0.004,1e-5 -0.008,5e-5 -0.0119,7e-5 -0.004,3e-5 -0.009,5e-5 -0.013,8e-5 -0.004,-5e-5 -0.009,3.5e-4 -0.0128,7e-5 -0.004,-2.7e-4 -0.008,-5.2e-4 -0.0116,-0.001 -0.004,-4.3e-4 -0.008,-10e-4 -0.0122,-0.002 -0.004,-5.3e-4 -0.009,-0.001 -0.0133,-0.002 -0.005,-4.2e-4 -0.01,-0.001 -0.0144,-0.002 -0.005,-5.3e-4 -0.0103,-10e-4 -0.0155,-10e-4 -0.005,-1.2e-4 -0.01,-3.9e-4 -0.0149,-4.8e-4 -0.004,-5e-5 -0.008,6e-5 -0.0114,7e-5 -0.003,-1e-5 -0.006,-4.2e-4 -0.008,-0.002 -0.001,-5.5e-4 -0.002,-0.002 -0.002,-0.003 2e-5,-3e-4 -8e-5,-5.7e-4 0,-0.001 8e-5,-3e-4 0.005,-0.003 0.005,-0.003 0.007,-0.003 0.0152,-0.005 0.023,-0.006 0.0103,-0.002 0.0208,-0.003 0.0312,-0.004 0.0106,-5.6e-4 0.0212,-0.002 0.0318,-0.002 0.0102,-3.6e-4 0.0205,-5.6e-4 0.0307,-5.6e-4 0.005,-8e-5 0.0101,-3.6e-4 0.0152,-3.9e-4 5.4e-4,0.002 0.001,0.004 0.002,0.006 0.002,0.005 0.005,0.01 0.009,0.0136 0.004,0.004 0.01,0.006 0.0153,0.007 0.006,5.3e-4 0.0105,3.9e-4 0.015,-0.003 0.004,-0.004 0.006,-0.008 0.006,-0.0137 2.7e-4,-0.003 5.4e-4,-0.007 0.001,-0.0104 0.004,-3e-5 0.008,-5e-5 0.0119,-7e-5 0.009,-6e-5 0.0172,-1e-4 0.0258,-1.5e-4 z m 0.0537,5.7e-4 c 10e-6,0.001 1.3e-4,0.002 2e-5,0.003 -4.1e-4,0.003 -0.002,0.007 -0.003,0.01 -0.001,0.002 -0.003,0.004 -0.004,0.006 -0.002,0.002 -0.005,0.002 -0.008,0.002 -0.005,4e-5 -0.009,-0.002 -0.0136,-0.005 -0.005,-0.003 -0.009,-0.006 -0.0128,-0.0104 -0.001,-0.002 -0.002,-0.004 -0.002,-0.006 l 0.0202,-1.1e-4 z m -0.1011,5.6e-4 c -2.7e-4,0.003 -3.9e-4,0.006 -5.4e-4,0.009 -2.7e-4,0.003 -7e-5,0.006 -0.003,0.008 -0.002,0.002 -0.005,0.002 -0.008,0.001 -0.004,-0.001 -0.007,-0.003 -0.01,-0.006 -0.003,-0.003 -0.005,-0.007 -0.007,-0.0107 -2.9e-4,-5.7e-4 -2.9e-4,-0.001 -5.4e-4,-0.002 0.008,-8e-5 0.0161,-9e-5 0.0241,-1.4e-4 0.002,-2e-5 0.003,-2e-5 0.004,-3e-5 z m 0.33173,0.0288 5.3e-4,0.001 -0.003,2e-5 -0.0147,8e-5 c 0.001,-7e-5 0.002,-1.4e-4 0.003,-3.1e-4 5.4e-4,-7e-5 0.002,4e-5 0.002,-1e-5 5.4e-4,-6e-5 0.002,-3.1e-4 0.002,-3.1e-4 5.3e-4,-5e-5 0.002,3e-5 0.002,-2e-5 5.4e-4,-5e-5 0.002,-3e-4 0.002,-3e-4 5.3e-4,-4e-5 0.001,1e-5 0.002,-2e-5 5.4e-4,-2e-5 10e-4,-1e-5 0.002,-1e-5 5.3e-4,-1e-5 0.001,0 0.002,-1e-5 z"
           inkscape:connector-curvature="0" />
      </g>
    </g>
  </g>
</svg>
